<?xml version="1.0" encoding="UTF-8"?>
<!-- Generated by Pixelmator Pro 3.6.9 -->
<svg width="512" height="512" viewBox="0 0 512 512" xmlns="http://www.w3.org/2000/svg">
    <path id="Path" fill="#146deb" stroke="none" d="M 0 246.712006 C 0 130.410889 0 72.260315 36.130081 36.130066 C 72.260323 0 130.410873 0 246.712006 0 L 265.287994 0 C 381.588806 0 439.739197 0 475.870392 36.130066 C 512 72.260315 512 130.410889 512 246.712006 L 512 265.287994 C 512 381.588806 512 439.739197 475.870392 475.870392 C 439.739197 512 381.588806 512 265.287994 512 L 0 512 L 0 246.712006 Z"/>
    <path id="path1" fill="#ffffff" stroke="none" d="M 151.35936 136.007843 L 204.867203 136.007843 L 305.435211 288.433594 L 307.126404 288.433594 L 307.126404 136.007843 L 360.635193 136.007843 L 360.635193 375.990387 L 307.126404 375.990387 L 206.558395 223.542419 L 204.867203 223.542419 L 204.867203 375.990387 L 151.35936 375.990387 L 151.35936 136.007843 Z"/>
</svg>
